<svg width="121" height="71" viewBox="0 0 121 71" fill="none" xmlns="http://www.w3.org/2000/svg">
<rect y="49.4517" width="5.29248" height="7.93872" rx="2.64624" fill="#F44236"/>
<path d="M80.2144 61.0291V13.3967H101.715C116.799 13.3967 120.349 25.3048 120.239 31.2589V61.0291H80.2144Z" fill="#D81B6F"/>
<path d="M98.2417 41.182L98.2417 26.6277L104.816 26.6277C109.428 26.6277 110.514 30.2663 110.48 32.0856L110.48 41.182L98.2417 41.182Z" fill="white"/>
<path d="M1.98438 5C1.98438 2.23858 4.22295 0 6.98438 0H78.0255C80.7869 0 83.0255 2.23858 83.0255 5V61.0289H6.98438C4.22296 61.0289 1.98438 58.7904 1.98438 56.0289V5Z" fill="#004D81"/>
<circle cx="101.88" cy="59.7057" r="8.5" fill="white" stroke="black" stroke-width="3.83915"/>
<circle cx="101.88" cy="59.7059" r="2.48085" fill="black"/>
<circle cx="22.4928" cy="59.7057" r="8.5" fill="white" stroke="black" stroke-width="3.83915"/>
<circle cx="22.4931" cy="59.7059" r="2.48085" fill="black"/>
<rect x="18.1929" y="18.5237" width="48.6247" height="1.6539" fill="white"/>
<rect x="18.1929" y="35.0627" width="48.6247" height="1.6539" fill="white"/>
</svg>
