<svg width="132" height="69" viewBox="0 0 132 69" fill="none" xmlns="http://www.w3.org/2000/svg">
<path d="M95.153 54.069C95.153 54.069 78.7011 49.8631 76.3807 45.2867C75.3252 43.1921 76.3686 40.5092 77.4244 38.6637C77.9078 38.0191 78.3789 37.3348 78.8342 36.6091V36.6011C81.5816 32.2431 83.6764 26.4905 83.8899 19.3846C84.2119 8.70133 75.8929 0.0242355 66.0239 0C66.0162 0 66.0077 0 65.9997 0C65.9955 0 65.9876 0 65.9796 0C56.1105 0.0242355 47.7918 8.70133 48.1141 19.3846C48.3276 26.491 50.4224 32.2431 53.1657 36.6011L53.17 36.6091C53.6254 37.3343 54.0967 38.0191 54.5798 38.6637C55.6354 40.5087 56.6827 43.1918 55.6191 45.2867C53.307 49.8628 36.8469 54.069 36.8469 54.069C33.6808 55.1165 31.3965 58.097 31.3965 61.6021V68.8289H100.603V61.6021C100.603 58.097 98.3234 55.1165 95.153 54.069Z" fill="#004D81"/>
<path d="M128.036 58.0973V58.0898C127.855 58.0328 116.06 55.0361 114.372 51.7089C113.607 50.1862 114.36 48.236 115.133 46.8991C115.484 46.4237 115.826 45.9243 116.156 45.4004C118.15 42.2183 119.677 38.0449 119.835 32.8799C120.068 25.1055 114.018 18.7968 106.831 18.7805C106.827 18.7805 106.819 18.7805 106.819 18.7805C106.811 18.7805 106.803 18.7805 106.799 18.7805C99.6165 18.7968 93.5584 25.105 93.7994 32.8799C93.9526 38.0442 95.4792 42.2178 97.4732 45.4004C97.8076 45.9241 98.15 46.424 98.5045 46.8991C98.5568 46.9878 98.6092 47.0845 98.6615 47.1812C104.487 49.5903 108.329 55.246 108.329 61.6034V68.83H132V63.5768C132 61.0223 130.344 58.863 128.036 58.0973Z" fill="#D81B6F"/>
<path d="M33.4994 46.8989C33.8496 46.4235 34.1963 45.9243 34.5307 45.4002C36.5245 42.2181 38.0513 38.0449 38.2047 32.8799C38.4466 25.1055 32.3874 18.7968 25.2055 18.7805C25.2011 18.7805 25.1933 18.7805 25.1854 18.7805C25.181 18.7805 25.181 18.7805 25.1732 18.7805C17.9866 18.7968 11.936 25.105 12.1696 32.8799C12.3266 38.0442 13.8496 42.2181 15.8477 45.4002C16.1777 45.9238 16.5201 46.424 16.8746 46.8989C17.644 48.2362 18.3973 50.1859 17.628 51.7086C15.94 55.0361 4.14943 58.0328 3.96818 58.0895V58.0973C1.65988 58.863 0 61.0223 0 63.576V68.8292H23.6745V61.6024C23.6745 55.2457 27.5176 49.5896 33.3427 47.1802C33.3948 47.0845 33.4471 46.9878 33.4994 46.8989Z" fill="#D81B6F"/>
</svg>
